<svg xmlns="http://www.w3.org/2000/svg" viewBox="0 0 2000 903" width="2000" height="903">
<g fill="#1B9CD8">
<path transform="translate(180.51,252.00)" d="M6.09375 -141.9140625V-170.625H124.3359375V-141.9140625H82.03125V0.0H47.578125V-141.9140625Z M141.260625 0.0V-170.625H238.995V-141.9140625H175.8309375V-101.6015625H229.385625V-73.828125H175.8309375V-28.59375H239.229375V0.0Z M335.49 0.0 304.318125 -65.9765625 290.724375 -48.984375V0.0H256.1540625V-170.625H290.724375V-96.4453125L301.6228125 -114.7265625L333.380625 -170.625H375.4509375L326.58375 -95.625L376.27125 0.0Z M505.4615625 -170.625V0.0H471.0084375L420.6178125 -111.9140625V0.0H386.0475V-170.625H420.6178125L471.0084375 -58.59375V-170.625Z M650.2378125 -70.078125Q650.2378125 -33.984375 633.3628125 -15.8203125Q616.4878125 2.34375 588.94875 2.34375Q561.526875 2.34375 544.4175 -15.8203125Q527.308125 -33.984375 527.308125 -70.078125V-98.4375Q527.308125 -135.3515625 544.3003125 -154.16015625Q561.2925 -172.96875 588.714375 -172.96875Q616.2534375 -172.96875 633.245625 -154.16015625Q650.2378125 -135.3515625 650.2378125 -98.4375ZM615.7846875 -98.671875Q615.7846875 -123.046875 608.870625 -133.59375Q601.9565625 -144.140625 588.714375 -144.140625Q575.589375 -144.140625 568.73390625 -133.76953125Q561.8784375 -123.3984375 561.76125 -99.609375V-70.078125Q561.76125 -46.875 568.73390625 -36.62109375Q575.7065625 -26.3671875 588.94875 -26.3671875Q602.07375 -26.3671875 608.870625 -36.4453125Q615.6675 -46.5234375 615.7846875 -69.2578125Z M708.0609375 -170.625V0.0H673.6078125V-170.625Z M811.3528125 -47.34375 843.4621875 -170.625H888.4621875V0.0H853.891875V-46.171875L857.0559375 -116.8359375L823.0715625 0.0H799.516875L765.5325 -116.8359375L768.6965625 -46.171875V0.0H734.12625V-170.625H779.12625Z M947.80875 -60.0V0.0H913.2384375V-170.625H971.480625Q997.261875 -170.625 1012.0860937500001 -154.62890625Q1026.9103125000001 -138.6328125 1026.9103125000001 -114.140625Q1026.9103125000001 -89.4140625 1012.2032812500001 -74.765625Q997.49625 -60.1171875 971.8321875 -60.0ZM947.80875 -141.9140625V-88.7109375H971.480625Q982.261875 -88.7109375 987.12515625 -95.80078125Q991.9884375 -102.890625 991.9884375 -113.90625Q991.9884375 -124.921875 987.12515625 -133.41796875Q982.261875 -141.9140625 971.480625 -141.9140625Z M1082.8584375 -170.625V0.0H1048.4053125V-170.625Z M1099.9003125 0.0 1153.220625 -170.625H1184.7440625L1238.4159375 0.0H1201.73625L1192.595625 -34.921875H1145.6034375L1136.4628125 0.0ZM1153.1034375 -63.6328125H1185.095625L1169.0409375 -124.5703125Z M1371.0046874999998 -170.625V0.0H1336.5515624999998L1286.1609374999998 -111.9140625V0.0H1251.5906249999998V-170.625H1286.1609374999998L1336.5515624999998 -58.59375V-170.625Z M1384.6481249999997 -141.9140625V-170.625H1502.8903124999997V-141.9140625H1460.5856249999997V0.0H1426.1324999999997V-141.9140625Z M1555.7915624999996 -170.625V0.0H1521.3384374999996V-170.625Z"/>
<path transform="translate(1808.30,81.36) rotate(90)" d="M19.3271484375 -10.0986328125Q19.3271484375 -12.076171875 18.36474609375 -13.35498046875Q17.40234375 -14.6337890625 13.3154296875 -16.294921875Q9.228515625 -17.9560546875 6.169921875 -20.513671875Q2.9267578125 -23.2294921875 2.9267578125 -28.1865234375Q2.9267578125 -33.0380859375 6.328125 -35.97802734375Q9.7294921875 -38.91796875 15.08203125 -38.91796875Q20.5927734375 -38.91796875 23.87548828125 -35.595703125Q27.158203125 -32.2734375 27.158203125 -27.0791015625H19.40625Q19.40625 -29.478515625 18.36474609375 -31.0341796875Q17.3232421875 -32.58984375 14.9501953125 -32.58984375Q12.76171875 -32.58984375 11.72021484375 -31.2978515625Q10.6787109375 -30.005859375 10.6787109375 -28.16015625Q10.6787109375 -26.2880859375 12.24755859375 -25.0224609375Q13.81640625 -23.7568359375 16.400390625 -22.623046875Q21.779296875 -20.6982421875 24.4423828125 -17.7978515625Q27.10546875 -14.8974609375 27.10546875 -10.1513671875Q27.10546875 -5.0888671875 23.9150390625 -2.28076171875Q20.724609375 0.52734375 15.240234375 0.52734375Q11.9443359375 0.52734375 8.89892578125 -0.8173828125Q5.853515625 -2.162109375 3.90234375 -4.95703125Q1.951171875 -7.751953125 1.951171875 -12.12890625H9.7294921875Q9.7294921875 -8.6484375 11.11376953125 -7.224609375Q12.498046875 -5.80078125 15.240234375 -5.80078125Q17.4814453125 -5.80078125 18.404296875 -7.02685546875Q19.3271484375 -8.2529296875 19.3271484375 -10.0986328125Z M40.1871796875 -3.796875Q40.1871796875 -5.5634765625 41.36051953125 -6.73681640625Q42.533859375 -7.91015625 44.537765625 -7.91015625Q46.5153046875 -7.91015625 47.68864453125 -6.73681640625Q48.861984375 -5.5634765625 48.861984375 -3.796875Q48.861984375 -2.056640625 47.68864453125 -0.88330078125Q46.5153046875 0.2900390625 44.537765625 0.2900390625Q42.533859375 0.2900390625 41.36051953125 -0.88330078125Q40.1871796875 -2.056640625 40.1871796875 -3.796875Z M80.8226015625 0.0 75.0481875 -14.02734375H71.198578125V0.0H63.4202578125V-38.390625H75.78646875Q81.534515625 -38.390625 84.7513125 -35.42431640625Q87.968109375 -32.4580078125 87.968109375 -26.7890625Q87.968109375 -22.623046875 86.491546875 -20.0654296875Q85.014984375 -17.5078125 82.4046328125 -16.1103515625L89.1546328125 -0.369140625V0.0ZM71.198578125 -31.9306640625V-20.4873046875H75.57553125Q77.89584375 -20.4873046875 79.056 -22.02978515625Q80.21615625 -23.572265625 80.21615625 -26.15625Q80.21615625 -31.8251953125 75.944671875 -31.9306640625Z M101.234390625 -3.796875Q101.234390625 -5.5634765625 102.40773046875 -6.73681640625Q103.5810703125 -7.91015625 105.5849765625 -7.91015625Q107.562515625 -7.91015625 108.73585546875 -6.73681640625Q109.9091953125 -5.5634765625 109.9091953125 -3.796875Q109.9091953125 -2.056640625 108.73585546875 -0.88330078125Q107.562515625 0.2900390625 105.5849765625 0.2900390625Q103.5810703125 0.2900390625 102.40773046875 -0.88330078125Q101.234390625 -2.056640625 101.234390625 -3.796875Z M145.7985234375 -6.43359375V0.0H124.4411015625V-38.390625H132.219421875V-6.43359375Z M158.2210546875 -3.796875Q158.2210546875 -5.5634765625 159.39439453125 -6.73681640625Q160.567734375 -7.91015625 162.571640625 -7.91015625Q164.5491796875 -7.91015625 165.72251953125 -6.73681640625Q166.895859375 -5.5634765625 166.895859375 -3.796875Q166.895859375 -2.056640625 165.72251953125 -0.88330078125Q164.5491796875 0.2900390625 162.571640625 0.2900390625Q160.567734375 0.2900390625 159.39439453125 -0.88330078125Q158.2210546875 -2.056640625 158.2210546875 -3.796875Z"/>
<path d="M 180.51 298.00 H 1819.49 v 6 H 180.51 Z"/>
<path transform="translate(180.51,422.00)" d="M18.25279854078479 -62.67942140420438V0.0H5.596376911089677V-62.67942140420438Z M73.17228668897243 -17.391817477540226 84.967727255423 -62.67942140420438H101.49856366971866V0.0H88.79909298686131V-16.961326945917943L89.96141742224148 -42.9199060027416L77.47719200519526 0.0H68.82433231958738L56.34010690254118 -42.9199060027416L57.50243133792135 -16.961326945917943V0.0H44.802960655064005V-62.67942140420438H61.33379706935966Z M140.2746568820707 -22.04111521906088V0.0H127.57518619921335V-62.67942140420438H148.9705656208408Q158.44135731653103 -62.67942140420438 163.8870625415529 -56.803225647560225Q169.3327677665748 -50.92702989091606 169.3327677665748 -41.92977778001035Q169.3327677665748 -32.84642756278018 163.93011159471513 -27.465295917501642Q158.5274554228555 -22.08416427222311 149.0997127803275 -22.04111521906088ZM140.2746568820707 -52.13240337945845V-32.58813324380681H148.9705656208408Q152.9310785117658 -32.58813324380681 154.7176142179983 -35.192600960121624Q156.50414992423077 -37.79706867643643 156.50414992423077 -41.84367967368589Q156.50414992423077 -45.89029067093535 154.7176142179983 -49.0113470251969Q152.9310785117658 -52.13240337945845 148.9705656208408 -52.13240337945845Z M206.86043843722223 -62.67942140420438V0.0H194.2040168075271V-62.67942140420438Z M230.09582345800985 0.0 249.68314264682374 -62.67942140420438H261.2633379474631L280.9798042957637 0.0H267.50545065598624L264.14762450933245 -12.828617842344029H246.8849541912789L243.52712804462507 0.0ZM249.6400935936615 -23.375635867089958H261.39248510694983L255.49476482372455 -45.761143511448665Z M346.6615557345084 -62.67942140420438V0.0H334.0051341048133L315.4940412450551 -41.11184576992801V0.0H302.79457056219775V-62.67942140420438H315.4940412450551L334.0051341048133 -21.52452658111414V-62.67942140420438Z M368.6485182135914 -52.13240337945845V-62.67942140420438H412.08501285427974V-52.13240337945845H396.5443046627153V0.0H383.8878830330202V-52.13240337945845Z M448.49340814270926 -62.67942140420438V0.0H435.83698651301415V-62.67942140420438Z M541.1127631741932 -20.921839836842945H553.7691848038884Q553.3386942722661 -10.245674652610331 547.7423173611764 -4.692346794682883Q542.1459404500868 0.8609810632445657 532.0724620101253 0.8609810632445657Q521.7406892511905 0.8609810632445657 516.0151651806141 -5.897720283225275Q510.2896411100378 -12.656421629695116 510.16049395055114 -25.398941365714688V-36.63474424105627Q510.16049395055114 -49.764705455535896 516.0797387603575 -56.67407848807353Q521.9989835701639 -63.58345152061118 532.2446582227742 -63.58345152061118Q542.4903328753845 -63.58345152061118 547.8284154675009 -57.836402923453704Q553.1664980596172 -52.089354326296224 553.8552829102128 -41.41318914206361H541.1988612805177Q540.9836160147065 -48.12884143537122 539.0894576755685 -50.60416199219935Q537.1952993364305 -53.079482549027475 532.2446582227742 -53.079482549027475Q527.3801152154424 -53.079482549027475 525.1415644510066 -49.59250924288698Q522.9030136865707 -46.10553593674649 522.8169155802462 -37.40962719797638V-26.001628109985884Q522.8169155802462 -17.133523158566856 524.7541229725465 -13.388255533452995Q526.6913303648467 -9.642987908339135 532.0724620101253 -9.642987908339135Q536.7648088048082 -9.642987908339135 538.8311633565952 -11.881538672775006Q540.8975179083822 -14.120089437210877 541.1127631741932 -20.921839836842945Z M590.6941687302646 -62.67942140420438V0.0H578.0377471005695V-62.67942140420438Z M662.3166895053968 -62.67942140420438 644.2360871772609 0.0H631.1061259627813L613.1116217409699 -62.67942140420438H627.1456130718562L637.64958204344 -17.219621264891313L648.196600068186 -62.67942140420438Z M697.3475150926349 -62.67942140420438V0.0H684.6910934629399V-62.67942140420438Z M758.767410268319 -10.503968971583701V0.0H723.8976772069142V-62.67942140420438H736.5971478897715V-10.503968971583701Z M795.2188546099107 -62.67942140420438V0.0H782.5624329802157V-62.67942140420438Z M858.0052157999705 0.0V-62.67942140420438H893.9081261372689V-52.13240337945845H870.7046864828278V-37.32352909165192H890.3781037779662V-27.12090349220382H870.7046864828278V-10.503968971583701H893.9942242435933V0.0Z M917.1865602112188 0.0V-62.67942140420438H933.7604456786767Q944.6518561287204 -62.67942140420438 951.2814103157036 -55.74852384508563Q957.9109645026867 -48.817626285966874 957.9109645026867 -36.16120465627176V-26.475167694770395Q957.9109645026867 -13.861795118237508 951.2814103157036 -6.930897559118754Q944.6518561287204 0.0 933.63129851919 0.0ZM929.886030894076 -52.13240337945845V-10.503968971583701H933.63129851919Q940.3899998656598 -10.503968971583701 942.8222713693257 -14.206187543535332Q945.2545428729916 -17.908406115486965 945.2545428729916 -26.475167694770395V-36.24730276259621Q945.2545428729916 -44.68491718239296 942.9083694756501 -48.36561122776348Q940.5621960783087 -52.046305273133996 934.0617890508122 -52.13240337945845Z M1032.3636190997104 -62.67942140420438V0.0H1019.7071974700152V-62.67942140420438Z M1102.7807663863 -62.67942140420438V0.0H1090.124344756605L1071.6132518968468 -41.11184576992801V0.0H1058.9137812139895V-62.67942140420438H1071.6132518968468L1090.124344756605 -21.52452658111414V-62.67942140420438Z M1128.8143398626326 0.0V-62.67942140420438H1145.3882253300903Q1156.2796357801342 -62.67942140420438 1162.9091899671173 -55.74852384508563Q1169.5387441541004 -48.817626285966874 1169.5387441541004 -36.16120465627176V-26.475167694770395Q1169.5387441541004 -13.861795118237508 1162.9091899671173 -6.930897559118754Q1156.2796357801342 0.0 1145.2590781706037 0.0ZM1141.5138105454898 -52.13240337945845V-10.503968971583701H1145.2590781706037Q1152.0177795170734 -10.503968971583701 1154.4500510207395 -14.206187543535332Q1156.8823225244053 -17.908406115486965 1156.8823225244053 -26.475167694770395V-36.24730276259621Q1156.8823225244053 -44.68491718239296 1154.5361491270637 -48.36561122776348Q1152.1899757297224 -52.046305273133996 1145.689568702226 -52.13240337945845Z M1222.6501720694746 -62.67942140420438H1235.3496427523319V-19.673417295138325Q1235.3496427523319 -8.78200684509457 1229.5380205754311 -3.960512890925002Q1223.7263983985304 0.8609810632445657 1214.7291462876246 0.8609810632445657Q1205.602747017232 0.8609810632445657 1199.8341738934937 -3.960512890925002Q1194.065600769755 -8.78200684509457 1194.065600769755 -19.673417295138325V-62.67942140420438H1206.7650714526123V-19.673417295138325Q1206.7650714526123 -13.517402692939681 1208.8099014778181 -11.580195300639408Q1210.854731503024 -9.642987908339135 1214.7291462876246 -9.642987908339135Q1218.6466101253873 -9.642987908339135 1220.648391097431 -11.580195300639408Q1222.6501720694746 -13.517402692939681 1222.6501720694746 -19.673417295138325Z M1287.3417952854882 -16.48778736113343Q1287.3417952854882 -19.716466348300553 1285.7705048450666 -21.804345426668625Q1284.1992144046453 -23.892224505036697 1277.5266111645 -26.60431485425708Q1270.8540079243546 -29.316405203477462 1265.8603177575362 -33.4921633602136Q1260.565284218582 -37.92621583592312 1260.565284218582 -46.019437830422035Q1260.565284218582 -53.94046361227204 1266.1186120765096 -58.74043303986049Q1271.671939934437 -63.54040246744895 1280.4108977263693 -63.54040246744895Q1289.408149837275 -63.54040246744895 1294.7677569559723 -58.116221769008185Q1300.12736407467 -52.69204107056742 1300.12736407467 -44.21137759760845H1287.4709424449748Q1287.4709424449748 -48.12884143537122 1285.7705048450666 -50.66873557194269Q1284.0700672451587 -53.20862970851416 1280.1956524605582 -53.20862970851416Q1276.6225810480933 -53.20862970851416 1274.9221434481851 -51.09922610356497Q1273.2217058482772 -48.98982249861579 1273.2217058482772 -45.97638877725981Q1273.2217058482772 -42.9199060027416 1275.7831245114298 -40.85355145095464Q1278.3445431745824 -38.78719689916768 1282.5633503844808 -36.936087613191866Q1291.3453572295753 -33.7935067323492 1295.6933115989605 -29.05811088450409Q1300.0412659683454 -24.32271503665898 1300.0412659683454 -16.573885467457888Q1300.0412659683454 -8.308467260310058 1294.8323305357158 -3.723743098532746Q1289.623395103086 0.8609810632445657 1280.6691920453427 0.8609810632445657Q1275.288060400064 0.8609810632445657 1270.3158947598267 -1.3345206480290768Q1265.3437291195894 -3.5300223593027193 1262.1580991855844 -8.093221994498917Q1258.9724692515797 -12.656421629695116 1258.9724692515797 -19.80256445462501H1271.671939934437Q1271.671939934437 -14.120089437210877 1273.932015225454 -11.79544056645055Q1276.192090516471 -9.470791695690222 1280.6691920453427 -9.470791695690222Q1284.3283615641321 -9.470791695690222 1285.83507842481 -11.472572667733838Q1287.3417952854882 -13.474353639777453 1287.3417952854882 -16.48778736113343Z M1321.5546888626438 -52.13240337945845V-62.67942140420438H1364.9911835033322V-52.13240337945845H1349.4504753117678V0.0H1336.7940536820727V-52.13240337945845Z M1416.6389436111906 0.0 1407.2112009686625 -22.902096282305447H1400.9260392069773V0.0H1388.2265685241198V-62.67942140420438H1408.416574457205Q1417.8012680465706 -62.67942140420438 1423.0532525323624 -57.836402923453704Q1428.3052370181545 -52.99338444270302 1428.3052370181545 -43.737838012823936Q1428.3052370181545 -36.936087613191866 1425.8944900410697 -32.76032945645572Q1423.4837430639848 -28.58457129971958 1419.2218868009243 -26.30297148212148L1430.2424444104547 -0.602686744271196V0.0ZM1400.9260392069773 -52.13240337945845V-33.449114307051374H1408.072182031907Q1411.8604987101833 -33.449114307051374 1413.7546570493214 -35.96748391704173Q1415.6488153884593 -38.485853527032084 1415.6488153884593 -42.70466073693046Q1415.6488153884593 -51.96020716680954 1408.6748687761783 -52.13240337945845Z M1466.1342510609375 -62.67942140420438V0.0H1453.4778294312423V-62.67942140420438Z M1489.369636081725 0.0 1508.956955270539 -62.67942140420438H1520.5371505711785L1540.2536169194789 0.0H1526.7792632797016L1523.4214371330477 -12.828617842344029H1506.1587668149941L1502.8009406683404 0.0ZM1508.9139062173767 -23.375635867089958H1520.666297730665L1514.7685774474398 -45.761143511448665Z M1596.9381162473178 -10.503968971583701V0.0H1562.068383185913V-62.67942140420438H1574.7678538687703V-10.503968971583701Z M1633.3895605889097 -62.67942140420438V0.0H1620.7331389592146V-62.67942140420438Z"/>
<path transform="translate(180.51,560.00)" d="M49.37726397707584 3.917463837762774 41.41318914206361 11.235802875341582 29.87604289458643 0.6457357974334242 26.56126580109485 0.8609810632445657Q16.48778736113343 0.8609810632445657 10.202625599448103 -6.02686744271196Q3.917463837762774 -12.914715948668485 3.917463837762774 -26.475167694770395V-36.16120465627176Q3.917463837762774 -49.72165640237367 10.159576546285875 -56.63102943491131Q16.401689254808975 -63.54040246744895 26.475167694770395 -63.54040246744895Q36.59169518789404 -63.54040246744895 42.85533242299826 -56.63102943491131Q49.11896965810247 -49.72165640237367 49.11896965810247 -36.16120465627176V-26.475167694770395Q49.11896965810247 -18.55414191292039 46.90194342024772 -12.893191422087371Q44.68491718239296 -7.232240931254352 40.724404291467955 -3.8744147846005457ZM36.462548028407355 -36.24730276259621Q36.462548028407355 -45.2015058203397 33.901129365254775 -49.075920604940244Q31.33971070210219 -52.95033538954079 26.475167694770395 -52.95033538954079Q21.653673740600826 -52.95033538954079 19.13530413061047 -49.14049418468359Q16.616934520620116 -45.33065297982638 16.573885467457888 -36.59169518789404V-26.475167694770395Q16.573885467457888 -17.607062743351367 19.13530413061047 -13.646549852426364Q21.696722793763055 -9.686036961501364 26.56126580109485 -9.686036961501364Q31.38275975526442 -9.686036961501364 33.901129365254775 -13.581976272683022Q36.419498975245126 -17.477915583864682 36.462548028407355 -26.13077526947257Z M88.11968986095482 -62.67942140420438H100.81916054381216V-19.673417295138325Q100.81916054381216 -8.78200684509457 95.00753836691135 -3.960512890925002Q89.19591619001054 0.8609810632445657 80.19866407910482 0.8609810632445657Q71.07226480871242 0.8609810632445657 65.30369168497383 -3.960512890925002Q59.535118561235244 -8.78200684509457 59.535118561235244 -19.673417295138325V-62.67942140420438H72.23458924409259V-19.673417295138325Q72.23458924409259 -13.517402692939681 74.27941926929843 -11.580195300639408Q76.32424929450427 -9.642987908339135 80.19866407910482 -9.642987908339135Q84.1161279168676 -9.642987908339135 86.11790888891122 -11.580195300639408Q88.11968986095482 -13.517402692939681 88.11968986095482 -19.673417295138325Z M107.10260034337102 0.0 126.68991953218489 -62.67942140420438H138.2701148328243L157.98658118112485 0.0H144.5122275413474L141.1544013946936 -12.828617842344029H123.89173107664006L120.53390492998625 0.0ZM126.64687047902267 -23.375635867089958H138.39926199231098L132.5015417090857 -45.761143511448665Z M165.64759068187502 0.0V-62.67942140420438H182.2214761493329Q193.11288659937665 -62.67942140420438 199.7424407863598 -55.74852384508563Q206.37199497334296 -48.817626285966874 206.37199497334296 -36.16120465627176V-26.475167694770395Q206.37199497334296 -13.861795118237508 199.7424407863598 -6.930897559118754Q193.11288659937665 0.0 182.0923289898462 0.0ZM178.34706136473235 -52.13240337945845V-10.503968971583701H182.0923289898462Q188.85103033631606 -10.503968971583701 191.28330183998196 -14.206187543535332Q193.71557334364786 -17.908406115486965 193.71557334364786 -26.475167694770395V-36.24730276259621Q193.71557334364786 -44.68491718239296 191.36939994630643 -48.36561122776348Q189.02322654896497 -52.046305273133996 182.5228195214685 -52.13240337945845Z M245.67405854833092 0.0 236.24631590580293 -22.902096282305447H229.96115414411761V0.0H217.26168346126025V-62.67942140420438H237.45168939434532Q246.83638298371108 -62.67942140420438 252.08836746950294 -57.836402923453704Q257.3403519552948 -52.99338444270302 257.3403519552948 -43.737838012823936Q257.3403519552948 -36.936087613191866 254.92960497821002 -32.76032945645572Q252.51885800112524 -28.58457129971958 248.25700173806462 -26.30297148212148L259.27755934759506 -0.602686744271196V0.0ZM229.96115414411761 -52.13240337945845V-33.449114307051374H237.1072969690475Q240.8956136473236 -33.449114307051374 242.78977198646163 -35.96748391704173Q244.68393032559968 -38.485853527032084 244.68393032559968 -42.70466073693046Q244.68393032559968 -51.96020716680954 237.7099837133187 -52.13240337945845Z M281.0156092323939 -62.67942140420438V0.0H268.3591876026988V-62.67942140420438Z M315.49445689108575 0.0V-62.67942140420438H332.06834235854365Q342.9597528085874 -62.67942140420438 349.58930699557055 -55.74852384508563Q356.2188611825537 -48.817626285966874 356.2188611825537 -36.16120465627176V-26.475167694770395Q356.2188611825537 -13.861795118237508 349.58930699557055 -6.930897559118754Q342.9597528085874 0.0 331.939195199057 0.0ZM328.1939275739431 -52.13240337945845V-10.503968971583701H331.939195199057Q338.6978965455268 -10.503968971583701 341.1301680491927 -14.206187543535332Q343.5624395528586 -17.908406115486965 343.5624395528586 -26.475167694770395V-36.24730276259621Q343.5624395528586 -44.68491718239296 341.21626615551713 -48.36561122776348Q338.8700927581757 -52.046305273133996 332.36968573067924 -52.13240337945845Z M380.2815599381129 -62.67942140420438V0.0H367.6251383084178V-62.67942140420438Z M414.7604075968047 0.0V-62.67942140420438H431.3342930642626Q442.22570351430636 -62.67942140420438 448.85525770128953 -55.74852384508563Q455.4848118882727 -48.817626285966874 455.4848118882727 -36.16120465627176V-26.475167694770395Q455.4848118882727 -13.861795118237508 448.85525770128953 -6.930897559118754Q442.22570351430636 0.0 431.205145904776 0.0ZM427.45987827966206 -52.13240337945845V-10.503968971583701H431.205145904776Q437.9638472512458 -10.503968971583701 440.3961187549117 -14.206187543535332Q442.8283902585776 -17.908406115486965 442.8283902585776 -26.475167694770395V-36.24730276259621Q442.8283902585776 -44.68491718239296 440.4822168612361 -48.36561122776348Q438.1360434638947 -52.046305273133996 431.6356364363982 -52.13240337945845Z M479.54751064383186 -62.67942140420438V0.0H466.89108901413675V-62.67942140420438Z M518.4621327403597 -16.48778736113343Q518.4621327403597 -19.716466348300553 516.8908422999384 -21.804345426668625Q515.3195518595171 -23.892224505036697 508.6469486193717 -26.60431485425708Q501.9743453792263 -29.316405203477462 496.98065521240784 -33.4921633602136Q491.68562167345374 -37.92621583592312 491.68562167345374 -46.019437830422035Q491.68562167345374 -53.94046361227204 497.2389495313812 -58.74043303986049Q502.79227738930865 -63.54040246744895 511.53123518124096 -63.54040246744895Q520.5284872921467 -63.54040246744895 525.8880944108441 -58.116221769008185Q531.2477015295416 -52.69204107056742 531.2477015295416 -44.21137759760845H518.5912798998464Q518.5912798998464 -48.12884143537122 516.8908422999384 -50.66873557194269Q515.1904047000304 -53.20862970851416 511.31598991542984 -53.20862970851416Q507.74291850296487 -53.20862970851416 506.04248090305686 -51.09922610356497Q504.34204330314884 -48.98982249861579 504.34204330314884 -45.97638877725981Q504.34204330314884 -42.9199060027416 506.9034619663014 -40.85355145095464Q509.464880629454 -38.78719689916768 513.6836878393524 -36.936087613191866Q522.4656946844469 -33.7935067323492 526.813649053832 -29.05811088450409Q531.1616034232171 -24.32271503665898 531.1616034232171 -16.573885467457888Q531.1616034232171 -8.308467260310058 525.9526679905875 -3.723743098532746Q520.7437325579579 0.8609810632445657 511.78952950021437 0.8609810632445657Q506.4083978549358 0.8609810632445657 501.4362322146984 -1.3345206480290768Q496.46406657446107 -3.5300223593027193 493.2784366404562 -8.093221994498917Q490.0928067064513 -12.656421629695116 490.0928067064513 -19.80256445462501H502.79227738930865Q502.79227738930865 -14.120089437210877 505.0523526803256 -11.79544056645055Q507.31242797134263 -9.470791695690222 511.78952950021437 -9.470791695690222Q515.4486990190038 -9.470791695690222 516.9554158796818 -11.472572667733838Q518.4621327403597 -13.474353639777453 518.4621327403597 -16.48778736113343Z M538.5212695518317 -52.13240337945845V-62.67942140420438H581.95776419252V-52.13240337945845H566.4170560009555V0.0H553.7606343712605V-52.13240337945845Z M619.4517675346943 0.0 610.0240248921664 -22.902096282305447H603.738863130481V0.0H591.0393924476238V-62.67942140420438H611.2293983807087Q620.6140919700746 -62.67942140420438 625.8660764558664 -57.836402923453704Q631.1180609416582 -52.99338444270302 631.1180609416582 -43.737838012823936Q631.1180609416582 -36.936087613191866 628.7073139645734 -32.76032945645572Q626.2965669874886 -28.58457129971958 622.0347107244281 -26.30297148212148L633.0552683339586 -0.602686744271196V0.0ZM603.738863130481 -52.13240337945845V-33.449114307051374H610.885005955411Q614.673322633687 -33.449114307051374 616.567480972825 -35.96748391704173Q618.4616393119632 -38.485853527032084 618.4616393119632 -42.70466073693046Q618.4616393119632 -51.96020716680954 611.4876926996822 -52.13240337945845Z M654.7933182187572 -62.67942140420438V0.0H642.1368965890622V-62.67942140420438Z M707.5266863803605 -18.468043806595933Q707.5266863803605 -9.298595483041309 702.6836678996099 -4.670822268101769Q697.8406494188591 -0.04304905316222828 688.1115634041955 0.0H667.1897235673526V-62.67942140420438H686.5617974903554Q695.9464910797211 -62.67942140420438 701.2630491452562 -58.48213872088712Q706.5796072107914 -54.28485603756987 706.5796072107914 -45.502849192475296Q706.5796072107914 -41.240992929414695 704.7069733982346 -37.66792151694975Q702.8343395856776 -34.0948501044848 698.7016304821037 -32.28678987167121Q703.5231244362733 -30.90922017047991 705.524905408317 -26.948707279554906Q707.5266863803605 -22.988194388629903 707.5266863803605 -18.468043806595933ZM679.8891942502099 -52.13240337945845V-36.462548028407355H686.4326503308687Q693.8801365279342 -36.462548028407355 693.8801365279342 -44.16832854444622Q693.8801365279342 -51.96020716680954 686.8631408624909 -52.13240337945845ZM694.8702647506653 -18.597190966082618Q694.8702647506653 -27.034805385879363 688.8864463611156 -27.293099704852732H679.8891942502099V-10.503968971583701H687.9393671915467Q691.6415857634983 -10.503968971583701 693.2559252570818 -12.807093315762915Q694.8702647506653 -15.110217659942128 694.8702647506653 -18.597190966082618Z M746.5704556363751 -62.67942140420438H759.2699263192324V-19.673417295138325Q759.2699263192324 -8.78200684509457 753.4583041423316 -3.960512890925002Q747.6466819654307 0.8609810632445657 738.649429854525 0.8609810632445657Q729.5230305841327 0.8609810632445657 723.7544574603941 -3.960512890925002Q717.9858843366554 -8.78200684509457 717.9858843366554 -19.673417295138325V-62.67942140420438H730.6853550195128V-19.673417295138325Q730.6853550195128 -13.517402692939681 732.7301850447186 -11.580195300639408Q734.7750150699245 -9.642987908339135 738.649429854525 -9.642987908339135Q742.5668936922879 -9.642987908339135 744.5686746643314 -11.580195300639408Q746.5704556363751 -13.517402692939681 746.5704556363751 -19.673417295138325Z M768.6528979464716 -52.13240337945845V-62.67942140420438H809.1190079189663V-55.27498426030112L783.7200665532516 -10.503968971583701H809.5494984505885V0.0H768.911192265445V-7.6196824097144065L794.4823298438087 -52.13240337945845Z M832.3207256112807 -62.67942140420438V0.0H819.6643039815857V-62.67942140420438Z M888.8424104511602 -25.743333791012514Q888.8424104511602 -12.484225417046202 882.6433467957993 -5.811622176900818Q876.4442831404384 0.8609810632445657 866.3277556473147 0.8609810632445657Q856.2542772073533 0.8609810632445657 849.969115445668 -5.811622176900818Q843.6839536839826 -12.484225417046202 843.6839536839826 -25.743333791012514V-36.16120465627176Q843.6839536839826 -49.72165640237367 849.9260663925057 -56.63102943491131Q856.1681791010288 -63.54040246744895 866.2416575409902 -63.54040246744895Q876.358185034114 -63.54040246744895 882.600297742637 -56.63102943491131Q888.8424104511602 -49.72165640237367 888.8424104511602 -36.16120465627176ZM876.185988821465 -36.24730276259621Q876.185988821465 -45.2015058203397 873.6460946848936 -49.075920604940244Q871.106200548322 -52.95033538954079 866.2416575409902 -52.95033538954079Q861.4201635868206 -52.95033538954079 858.9017939768303 -49.14049418468359Q856.38342436684 -45.33065297982638 856.3403753136778 -36.59169518789404V-25.743333791012514Q856.3403753136778 -17.219621264891313 858.9017939768303 -13.452829113196337Q861.4632126399829 -9.686036961501364 866.3277556473147 -9.686036961501364Q871.1492496014843 -9.686036961501364 873.6460946848936 -13.388255533452995Q876.1429397683028 -17.090474105404628 876.185988821465 -25.441990418876916Z M943.5560350582258 -62.67942140420438V0.0H930.8996134285306L912.3885205687725 -41.11184576992801V0.0H899.6890498859152V-62.67942140420438H912.3885205687725L930.8996134285306 -21.52452658111414V-62.67942140420438Z M955.4358517688744 0.0V-62.67942140420438H991.3387621061727V-52.13240337945845H968.1353224517317V-37.32352909165192H987.8087397468701V-27.12090349220382H968.1353224517317V-10.503968971583701H991.4248602124972V0.0Z M1022.5458817245353 0.0V-62.67942140420438H1058.4487920618337V-52.13240337945845H1035.2453524073926V-37.32352909165192H1054.9187697025309V-27.12090349220382H1035.2453524073926V-10.503968971583701H1058.5348901681582V0.0Z M1089.6559116801964 0.0V-62.67942140420438H1106.2297971476542Q1117.121207597698 -62.67942140420438 1123.7507617846811 -55.74852384508563Q1130.3803159716642 -48.817626285966874 1130.3803159716642 -36.16120465627176V-26.475167694770395Q1130.3803159716642 -13.861795118237508 1123.7507617846811 -6.930897559118754Q1117.121207597698 0.0 1106.1006499881676 0.0ZM1102.3553823630536 -52.13240337945845V-10.503968971583701H1106.1006499881676Q1112.8593513346373 -10.503968971583701 1115.2916228383033 -14.206187543535332Q1117.723894341969 -17.908406115486965 1117.723894341969 -26.475167694770395V-36.24730276259621Q1117.723894341969 -44.68491718239296 1115.3777209446275 -48.36561122776348Q1113.0315475472862 -52.046305273133996 1106.53114051979 -52.13240337945845Z M1154.4430147272235 -62.67942140420438V0.0H1141.7865930975283V-62.67942140420438Z M1218.7548562273396 -20.921839836842945H1231.4112778570345Q1230.9807873254124 -10.245674652610331 1225.3844104143227 -4.692346794682883Q1219.788033503233 0.8609810632445657 1209.7145550632715 0.8609810632445657Q1199.3827823043368 0.8609810632445657 1193.6572582337603 -5.897720283225275Q1187.931734163184 -12.656421629695116 1187.8025870036975 -25.398941365714688V-36.63474424105627Q1187.8025870036975 -49.764705455535896 1193.7218318135037 -56.67407848807353Q1199.6410766233103 -63.58345152061118 1209.8867512759207 -63.58345152061118Q1220.132425928531 -63.58345152061118 1225.4705085206472 -57.836402923453704Q1230.8085911127635 -52.089354326296224 1231.497375963359 -41.41318914206361H1218.840954333664Q1218.6257090678528 -48.12884143537122 1216.7315507287149 -50.60416199219935Q1214.8373923895767 -53.079482549027475 1209.8867512759205 -53.079482549027475Q1205.0222082685887 -53.079482549027475 1202.7836575041529 -49.59250924288698Q1200.5451067397169 -46.10553593674649 1200.4590086333924 -37.40962719797638V-26.001628109985884Q1200.4590086333924 -17.133523158566856 1202.3962160256929 -13.388255533452995Q1204.3334234179931 -9.642987908339135 1209.7145550632715 -9.642987908339135Q1214.4069018579544 -9.642987908339135 1216.4732564097412 -11.881538672775006Q1218.5396109615283 -14.120089437210877 1218.7548562273396 -20.921839836842945Z M1285.0917251882067 -25.743333791012514Q1285.0917251882067 -12.484225417046202 1278.892661532846 -5.811622176900818Q1272.693597877485 0.8609810632445657 1262.5770703843614 0.8609810632445657Q1252.5035919444 0.8609810632445657 1246.2184301827147 -5.811622176900818Q1239.9332684210294 -12.484225417046202 1239.9332684210294 -25.743333791012514V-36.16120465627176Q1239.9332684210294 -49.72165640237367 1246.1753811295525 -56.63102943491131Q1252.4174938380756 -63.54040246744895 1262.490972278037 -63.54040246744895Q1272.6074997711605 -63.54040246744895 1278.8496124796836 -56.63102943491131Q1285.0917251882067 -49.72165640237367 1285.0917251882067 -36.16120465627176ZM1272.4353035585116 -36.24730276259621Q1272.4353035585116 -45.2015058203397 1269.8954094219403 -49.075920604940244Q1267.3555152853687 -52.95033538954079 1262.490972278037 -52.95033538954079Q1257.6694783238675 -52.95033538954079 1255.151108713877 -49.14049418468359Q1252.6327391038867 -45.33065297982638 1252.5896900507244 -36.59169518789404V-25.743333791012514Q1252.5896900507244 -17.219621264891313 1255.151108713877 -13.452829113196337Q1257.7125273770296 -9.686036961501364 1262.5770703843614 -9.686036961501364Q1267.398564338531 -9.686036961501364 1269.8954094219403 -13.388255533452995Q1272.3922545053495 -17.090474105404628 1272.4353035585116 -25.441990418876916Z M1339.8053497952724 -62.67942140420438V0.0H1327.1489281655774L1308.6378353058192 -41.11184576992801V0.0H1295.938364622962V-62.67942140420438H1308.6378353058192L1327.1489281655774 -21.52452658111414V-62.67942140420438Z M1347.6385555086715 -52.13240337945845V-62.67942140420438H1391.0750501493599V-52.13240337945845H1375.5343419577955V0.0H1362.8779203281003V-52.13240337945845Z M1428.5690534915343 0.0 1419.1413108490062 -22.902096282305447H1412.856149087321V0.0H1400.1566784044635V-62.67942140420438H1420.3466843375486Q1429.7313779269143 -62.67942140420438 1434.9833624127064 -57.836402923453704Q1440.2353468984982 -52.99338444270302 1440.2353468984982 -43.737838012823936Q1440.2353468984982 -36.936087613191866 1437.8245999214132 -32.76032945645572Q1435.4138529443285 -28.58457129971958 1431.151996681268 -26.30297148212148L1442.1725542907984 -0.602686744271196V0.0ZM1412.856149087321 -52.13240337945845V-33.449114307051374H1420.0022919122507Q1423.790608590527 -33.449114307051374 1425.6847669296649 -35.96748391704173Q1427.578925268803 -38.485853527032084 1427.578925268803 -42.70466073693046Q1427.578925268803 -51.96020716680954 1420.604978656522 -52.13240337945845Z M1494.819824346077 -25.743333791012514Q1494.819824346077 -12.484225417046202 1488.620760690716 -5.811622176900818Q1482.4216970353552 0.8609810632445657 1472.3051695422316 0.8609810632445657Q1462.2316911022701 0.8609810632445657 1455.946529340585 -5.811622176900818Q1449.6613675788997 -12.484225417046202 1449.6613675788997 -25.743333791012514V-36.16120465627176Q1449.6613675788997 -49.72165640237367 1455.9034802874228 -56.63102943491131Q1462.145592995946 -63.54040246744895 1472.2190714359072 -63.54040246744895Q1482.3355989290308 -63.54040246744895 1488.5777116375539 -56.63102943491131Q1494.819824346077 -49.72165640237367 1494.819824346077 -36.16120465627176ZM1482.1634027163818 -36.24730276259621Q1482.1634027163818 -45.2015058203397 1479.6235085798103 -49.075920604940244Q1477.083614443239 -52.95033538954079 1472.2190714359072 -52.95033538954079Q1467.3975774817377 -52.95033538954079 1464.8792078717474 -49.14049418468359Q1462.360838261757 -45.33065297982638 1462.3177892085946 -36.59169518789404V-25.743333791012514Q1462.3177892085946 -17.219621264891313 1464.8792078717472 -13.452829113196337Q1467.4406265348998 -9.686036961501364 1472.3051695422316 -9.686036961501364Q1477.1266634964013 -9.686036961501364 1479.6235085798105 -13.388255533452995Q1482.1203536632197 -17.090474105404628 1482.1634027163818 -25.441990418876916Z M1540.5361968422371 -10.503968971583701V0.0H1505.6664637808321V-62.67942140420438H1518.3659344636894V-10.503968971583701Z M1584.4875581587457 -10.503968971583701V0.0H1549.6178250973408V-62.67942140420438H1562.317295780198V-10.503968971583701Z M1634.9393265027506 -25.743333791012514Q1634.9393265027506 -12.484225417046202 1628.7402628473897 -5.811622176900818Q1622.541199192029 0.8609810632445657 1612.4246716989053 0.8609810632445657Q1602.3511932589438 0.8609810632445657 1596.0660314972586 -5.811622176900818Q1589.7808697355733 -12.484225417046202 1589.7808697355733 -25.743333791012514V-36.16120465627176Q1589.7808697355733 -49.72165640237367 1596.0229824440964 -56.63102943491131Q1602.2650951526196 -63.54040246744895 1612.3385735925808 -63.54040246744895Q1622.4551010857044 -63.54040246744895 1628.6972137942275 -56.63102943491131Q1634.9393265027506 -49.72165640237367 1634.9393265027506 -36.16120465627176ZM1622.2829048730555 -36.24730276259621Q1622.2829048730555 -45.2015058203397 1619.743010736484 -49.075920604940244Q1617.2031165999126 -52.95033538954079 1612.3385735925808 -52.95033538954079Q1607.5170796384114 -52.95033538954079 1604.998710028421 -49.14049418468359Q1602.4803404184306 -45.33065297982638 1602.4372913652683 -36.59169518789404V-25.743333791012514Q1602.4372913652683 -17.219621264891313 1604.9987100284209 -13.452829113196337Q1607.5601286915735 -9.686036961501364 1612.4246716989053 -9.686036961501364Q1617.246165653075 -9.686036961501364 1619.7430107364842 -13.388255533452995Q1622.2398558198934 -17.090474105404628 1622.2829048730555 -25.441990418876916Z"/>
<path transform="translate(180.51,698.00)" d="M0.9470791695690223 0.0 20.53439835838289 -62.67942140420438H32.1145936590223L51.831060007322854 0.0H38.3567063675454L34.99888022089159 -12.828617842344029H17.736209902838052L14.378383756184247 0.0ZM20.491349305220663 -23.375635867089958H32.24374081850898L26.34602053528371 -45.761143511448665Z M194.6442275184634 -62.67942140420438H207.34369820132076V-19.673417295138325Q207.34369820132076 -8.78200684509457 201.53207602441995 -3.960512890925002Q195.7204538475191 0.8609810632445657 186.7232017366134 0.8609810632445657Q177.596802466221 0.8609810632445657 171.82822934248242 -3.960512890925002Q166.0596562187438 -8.78200684509457 166.0596562187438 -19.673417295138325V-62.67942140420438H178.75912690160118V-19.673417295138325Q178.75912690160118 -13.517402692939681 180.80395692680702 -11.580195300639408Q182.84878695201286 -9.642987908339135 186.7232017366134 -9.642987908339135Q190.6406655743762 -9.642987908339135 192.6424465464198 -11.580195300639408Q194.6442275184634 -13.517402692939681 194.6442275184634 -19.673417295138325Z M323.6386489645286 -52.13240337945845V-62.67942140420438H367.07514360521697V-52.13240337945845H351.53443541365255V0.0H338.87801378395744V-52.13240337945845Z M526.8065890091133 -25.743333791012514Q526.8065890091133 -12.484225417046202 520.6075253537524 -5.811622176900818Q514.4084616983915 0.8609810632445657 504.29193420526786 0.8609810632445657Q494.21845576530643 0.8609810632445657 487.9332940036211 -5.811622176900818Q481.64813224193574 -12.484225417046202 481.64813224193574 -25.743333791012514V-36.16120465627176Q481.64813224193574 -49.72165640237367 487.89024495045885 -56.63102943491131Q494.13235765898196 -63.54040246744895 504.2058360989434 -63.54040246744895Q514.3223635920671 -63.54040246744895 520.5644763005902 -56.63102943491131Q526.8065890091133 -49.72165640237367 526.8065890091133 -36.16120465627176ZM514.1501673794181 -36.24730276259621Q514.1501673794181 -45.2015058203397 511.6102732428467 -49.075920604940244Q509.0703791062752 -52.95033538954079 504.2058360989434 -52.95033538954079Q499.3843421447738 -52.95033538954079 496.86597253478345 -49.14049418468359Q494.3476029247931 -45.33065297982638 494.3045538716309 -36.59169518789404V-25.743333791012514Q494.3045538716309 -17.219621264891313 496.8659725347835 -13.452829113196337Q499.42739119793606 -9.686036961501364 504.29193420526786 -9.686036961501364Q509.11342815943743 -9.686036961501364 511.6102732428467 -13.388255533452995Q514.1071183262559 -17.090474105404628 514.1501673794181 -25.441990418876916Z M673.7955146769899 -17.391817477540226 685.5909552434405 -62.67942140420438H702.1217916577361V0.0H689.4223209748789V-16.961326945917943L690.584645410259 -42.9199060027416L678.1004199932128 0.0H669.4475603076049L656.9633348905587 -42.9199060027416L658.1256593259388 -16.961326945917943V0.0H645.4261886430816V-62.67942140420438H661.9570250573772Z M818.5028405272686 0.0 838.0901597160824 -62.67942140420438H849.6703550167218L869.3868213650225 0.0H855.9124677252449L852.5546415785911 -12.828617842344029H835.2919712605376L831.9341451138838 0.0ZM838.0471106629202 -23.375635867089958H849.7995021762085L843.9017818929833 -45.761143511448665Z M982.8835836726854 -52.13240337945845V-62.67942140420438H1023.3496936451801V-55.27498426030112L997.9507522794654 -10.503968971583701H1023.7801841768023V0.0H983.1418779916588V-7.6196824097144065L1008.7130155700224 -52.13240337945845Z M1154.3243715367078 -62.67942140420438V0.0H1141.6679499070126V-62.67942140420438Z M1318.6190165758 -25.743333791012514Q1318.6190165758 -12.484225417046202 1312.4199529204393 -5.811622176900818Q1306.2208892650783 0.8609810632445657 1296.1043617719547 0.8609810632445657Q1286.0308833319932 0.8609810632445657 1279.745721570308 -5.811622176900818Q1273.4605598086227 -12.484225417046202 1273.4605598086227 -25.743333791012514V-36.16120465627176Q1273.4605598086227 -49.72165640237367 1279.7026725171459 -56.63102943491131Q1285.944785225669 -63.54040246744895 1296.0182636656302 -63.54040246744895Q1306.1347911587538 -63.54040246744895 1312.376903867277 -56.63102943491131Q1318.6190165758 -49.72165640237367 1318.6190165758 -36.16120465627176ZM1305.962594946105 -36.24730276259621Q1305.962594946105 -45.2015058203397 1303.4227008095336 -49.075920604940244Q1300.882806672962 -52.95033538954079 1296.0182636656302 -52.95033538954079Q1291.1967697114608 -52.95033538954079 1288.6784001014703 -49.14049418468359Q1286.16003049148 -45.33065297982638 1286.1169814383177 -36.59169518789404V-25.743333791012514Q1286.1169814383177 -17.219621264891313 1288.6784001014703 -13.452829113196337Q1291.239818764623 -9.686036961501364 1296.1043617719547 -9.686036961501364Q1300.9258557261244 -9.686036961501364 1303.4227008095336 -13.388255533452995Q1305.9195458929428 -17.090474105404628 1305.962594946105 -25.441990418876916Z M1481.105601382079 -62.67942140420438V0.0H1468.449179752384L1449.9380868926257 -41.11184576992801V0.0H1437.2386162097685V-62.67942140420438H1449.9380868926257L1468.449179752384 -21.52452658111414V-62.67942140420438Z M1600.7583782919407 0.0V-62.67942140420438H1636.6612886292392V-52.13240337945845H1613.457848974798V-37.32352909165192H1633.1312662699363V-27.12090349220382H1613.457848974798V-10.503968971583701H1636.7473867355636V0.0Z"/>
<path d="M 180.51 742.00 H 1819.49 v 4 H 180.51 Z"/>
<path transform="translate(180.51,842.00)" d="M37.080732431816955 -46.38277183911124 23.701086708996403 0.0H13.98491541028148L0.6689822861410275 -46.38277183911124H11.05413587099698L18.82707290996892 -12.742519736019572L26.631866248280907 -46.38277183911124Z M82.86308738582375 0.0V-46.38277183911124H109.43124103542455V-38.577978500799254H92.26069569113818V-27.61941152782242H106.81902448954054V-20.069468584230826H92.26069569113818V-7.772937038971939H109.49495363410465V0.0Z M188.75827919450285 -46.38277183911124V0.0H179.39252718852848L165.69431847230743 -30.42276586974673V0.0H156.296710166993V-46.38277183911124H165.69431847230743L179.39252718852848 -15.928149670024466V-46.38277183911124Z M237.66255148383442 0.0V-46.38277183911124H264.2307051334352V-38.577978500799254H247.06015978914886V-27.61941152782242H261.6184885875512V-20.069468584230826H247.06015978914886V-7.772937038971939H264.29441773211533V0.0Z M342.66576691099215 -24.401925294477483V-5.256289391108074Q341.2003771413499 -3.695330723445676 337.5687590165843 -1.5291023683223486Q333.93714089181873 0.6371259868009786 327.4065995271087 0.6371259868009786Q319.6655187874768 0.6371259868009786 315.0304272334997 -4.252815961896532Q310.3953356795226 -9.142757910594042 310.3953356795226 -19.241204801389554V-27.10971073838164Q310.3953356795226 -37.2400139285172 314.8233612877894 -42.14588402688474Q319.2513868960562 -47.05175412525227 326.83318613898786 -47.05175412525227Q334.7016920759799 -47.05175412525227 338.3970227994256 -43.117501156756234Q342.0923535228713 -39.18324818826019 342.6339106116521 -31.633305244668588H333.55486529973814Q333.17258970765755 -35.99761825425529 331.69127178834526 -37.638217670267814Q330.20995386903303 -39.278817086280334 327.08803653370825 -39.278817086280334Q323.4564184089426 -39.278817086280334 321.6406093465598 -36.57103164237617Q319.82480028417706 -33.86324619847201 319.79294398483705 -27.42827373178213V-19.241204801389554Q319.79294398483705 -12.646950837999425 321.79989084326013 -9.891380945085192Q323.8068377016832 -7.13581105217096 327.94815661588956 -7.13581105217096Q330.43294796441336 -7.13581105217096 331.54791844131506 -7.804793338311988L333.26815860567774 -8.824194917193553V-17.32982684098662H326.6739046422876V-24.401925294477483Z M423.3626259416926 -19.05006700534926Q423.3626259416926 -9.23832680861419 418.77531883672555 -4.300600410906606Q414.1880117317585 0.6371259868009786 406.701781386847 0.6371259868009786Q399.24740734127556 0.6371259868009786 394.5963876376284 -4.300600410906606Q389.9453679339813 -9.23832680861419 389.9453679339813 -19.05006700534926V-26.759291445641104Q389.9453679339813 -36.79402573775651 394.56453133828836 -41.90696178183437Q399.18369474259543 -47.019897825912224 406.6380687881669 -47.019897825912224Q414.1242991330784 -47.019897825912224 418.74346253738554 -41.90696178183437Q423.3626259416926 -36.79402573775651 423.3626259416926 -26.759291445641104ZM413.9968739357182 -26.8230040443212Q413.9968739357182 -33.449114307051374 412.11735227465533 -36.31618124765578Q410.23783061359245 -39.18324818826019 406.6380687881669 -39.18324818826019Q403.0701632620814 -39.18324818826019 401.2065697506886 -36.36396569666586Q399.3429762392957 -33.54468320507152 399.31111993995563 -27.07785443904159V-19.05006700534926Q399.31111993995563 -12.742519736019572 401.2065697506886 -9.95509354376529Q403.10201956142146 -7.167667351511009 406.701781386847 -7.167667351511009Q410.26968691293246 -7.167667351511009 412.11735227465533 -9.907309094755217Q413.96501763637815 -12.646950837999425 413.9968739357182 -18.82707290996892Z M503.96391607437283 -46.38277183911124V0.0H494.59816406839843L480.8999553521774 -30.42276586974673V0.0H471.50234704686295V-46.38277183911124H480.8999553521774L494.59816406839843 -15.928149670024466V-46.38277183911124Z M585.5208951872546 -19.05006700534926Q585.5208951872546 -9.23832680861419 580.9335880822875 -4.300600410906606Q576.3462809773205 0.6371259868009786 568.860050632409 0.6371259868009786Q561.4056765868376 0.6371259868009786 556.7546568831904 -4.300600410906606Q552.1036371795433 -9.23832680861419 552.1036371795433 -19.05006700534926V-26.759291445641104Q552.1036371795433 -36.79402573775651 556.7228005838504 -41.90696178183437Q561.3419639881574 -47.019897825912224 568.796338033729 -47.019897825912224Q576.2825683786403 -47.019897825912224 580.9017317829475 -41.90696178183437Q585.5208951872546 -36.79402573775651 585.5208951872546 -26.759291445641104ZM576.1551431812802 -26.8230040443212Q576.1551431812802 -33.449114307051374 574.2756215202173 -36.31618124765578Q572.3960998591544 -39.18324818826019 568.796338033729 -39.18324818826019Q565.2284325076434 -39.18324818826019 563.3648389962506 -36.36396569666586Q561.5012454848577 -33.54468320507152 561.4693891855177 -27.07785443904159V-19.05006700534926Q561.4693891855177 -12.742519736019572 563.3648389962506 -9.95509354376529Q565.2602888069835 -7.167667351511009 568.860050632409 -7.167667351511009Q572.4279561584945 -7.167667351511009 574.2756215202173 -9.907309094755217Q576.1232868819402 -12.646950837999425 576.1551431812802 -18.82707290996892Z M699.8947154227432 -46.38277183911124V0.0H690.5289634167689V-46.38277183911124Z M781.6428323316653 -46.38277183911124V0.0H772.2770803256909L758.5788716094698 -30.42276586974673V0.0H749.1812633041554V-46.38277183911124H758.5788716094698L772.2770803256909 -15.928149670024466V-46.38277183911124Z M830.5471046209968 0.0V-46.38277183911124H856.2232818890762V-38.577978500799254H839.9447129263112V-26.695578846961006H854.4711854253735V-18.922641807989066H839.9447129263112V0.0Z M903.0250384219646 0.0V-46.38277183911124H929.5931920715653V-38.577978500799254H912.422646727279V-27.61941152782242H926.9809755256814V-20.069468584230826H912.422646727279V-7.772937038971939H929.6569046702455V0.0Z M997.5156750669062 0.0 990.5391455114354 -16.94755124890603H985.8881258077882V0.0H976.4905175024738V-46.38277183911124H991.4311218929568Q998.3757951490875 -46.38277183911124 1002.2622636685735 -42.79893816335574Q1006.1487321880594 -39.215104487600236 1006.1487321880594 -32.36600012948971Q1006.1487321880594 -27.332704833761984 1004.3647794250166 -24.242643797777237Q1002.5808266619739 -21.15258276179249 999.4270530273091 -19.464198896769897L1007.5822656583616 -0.445988190760685V0.0ZM985.8881258077882 -38.577978500799254V-24.75234458721802H991.1762714982364Q993.9796258401607 -24.75234458721802 995.3813030111228 -26.615938098610883Q996.782980182085 -28.479531610003743 996.782980182085 -31.60144894532854Q996.782980182085 -38.45055330343906 991.6222596889971 -38.577978500799254Z M1063.7816304965643 -46.38277183911124V0.0H1054.4158784905899V-46.38277183911124Z M1145.7208852015265 -19.05006700534926Q1145.7208852015265 -9.23832680861419 1141.1335780965596 -4.300600410906606Q1136.5462709915926 0.6371259868009786 1129.060040646681 0.6371259868009786Q1121.6056666011095 0.6371259868009786 1116.9546468974622 -4.300600410906606Q1112.3036271938151 -9.23832680861419 1112.3036271938151 -19.05006700534926V-26.759291445641104Q1112.3036271938151 -36.79402573775651 1116.9227905981224 -41.90696178183437Q1121.5419540024295 -47.019897825912224 1128.9963280480008 -47.019897825912224Q1136.4825583929123 -47.019897825912224 1141.1017217972194 -41.90696178183437Q1145.7208852015265 -36.79402573775651 1145.7208852015265 -26.759291445641104ZM1136.355133195552 -26.8230040443212Q1136.355133195552 -33.449114307051374 1134.4756115344892 -36.31618124765578Q1132.5960898734263 -39.18324818826019 1128.9963280480008 -39.18324818826019Q1125.4284225219153 -39.18324818826019 1123.5648290105225 -36.36396569666586Q1121.7012354991298 -33.54468320507152 1121.6693791997895 -27.07785443904159V-19.05006700534926Q1121.6693791997895 -12.742519736019572 1123.5648290105225 -9.95509354376529Q1125.4602788212555 -7.167667351511009 1129.060040646681 -7.167667351511009Q1132.6279461727665 -7.167667351511009 1134.4756115344894 -9.907309094755217Q1136.323276896212 -12.646950837999425 1136.355133195552 -18.82707290996892Z M1214.9176201704693 0.0 1207.9410906149985 -16.94755124890603H1203.2900709113514V0.0H1193.892462606037V-46.38277183911124H1208.83306699652Q1215.7777402526506 -46.38277183911124 1219.6642087721366 -42.79893816335574Q1223.5506772916226 -39.215104487600236 1223.5506772916226 -32.36600012948971Q1223.5506772916226 -27.332704833761984 1221.7667245285797 -24.242643797777237Q1219.982771765537 -21.15258276179249 1216.8289981308724 -19.464198896769897L1224.9842107619247 -0.445988190760685V0.0ZM1203.2900709113514 -38.577978500799254V-24.75234458721802H1208.5782166017996Q1211.381570943724 -24.75234458721802 1212.783248114686 -26.615938098610883Q1214.1849252856482 -28.479531610003743 1214.1849252856482 -31.60144894532854Q1214.1849252856482 -38.45055330343906 1209.0242047925603 -38.577978500799254Z M1271.4036917027327 0.0V-46.38277183911124H1297.9718453523335V-38.577978500799254H1280.801300008047V-27.61941152782242H1295.3596288064493V-20.069468584230826H1280.801300008047V-7.772937038971939H1298.0355579510135V0.0Z M1401.4189549141854 -18.858929209308968Q1401.4189549141854 -27.842405623202765 1403.6011114189787 -34.56408478395309Q1405.783267923772 -41.28576394470341 1408.968897857777 -45.586364355610016Q1412.154527791782 -49.88696476651663 1415.1808762290864 -51.479779733519074L1416.869260094109 -46.47834073713139Q1414.0659057521848 -43.83426789190733 1411.5492581043209 -37.31965467686732Q1409.032610456457 -30.805041461827315 1408.968897857777 -19.559767794790044V-18.062521725807745Q1408.968897857777 -6.403116167349835 1411.5014736553107 0.2389222450503672Q1414.0340494528448 6.8809606574505695 1416.869260094109 9.588746101354728L1415.1808762290864 14.494616199722264Q1412.154527791782 12.901801232719817 1408.968897857777 8.617128971483236Q1405.783267923772 4.332456710246655 1403.6011114189787 -2.4051506001736938Q1401.4189549141854 -9.142757910594042 1401.4189549141854 -18.858929209308968Z M1497.7891132201898 -46.38277183911124 1484.4094674973692 0.0H1474.6932961986543L1461.3773630745138 -46.38277183911124H1471.7625166593698L1479.5354536983416 -12.742519736019572L1487.3402470366536 -46.38277183911124Z M1538.1558972863882 0.0 1552.6505134861104 -46.38277183911124H1561.2198580085835L1575.810043106326 0.0H1565.8390214128906L1563.354230064367 -9.493177203334582H1550.5798540290073L1548.0950626804834 0.0ZM1552.6186571867704 -17.29797054164657H1561.3154269066038L1556.951113897017 -33.86324619847201Z M1635.6091697699544 -18.126234324487843Q1635.6091697699544 -9.493177203334582 1633.3633006664809 -2.7077854439041595Q1631.1174315630076 4.077606315526263 1627.8043764316426 8.48970377412304Q1624.4913213002774 12.901801232719817 1621.3375476656124 14.494616199722264L1619.6491638005898 9.588746101354728Q1622.4206618431742 6.944673256130667 1624.953237640708 0.38227559208058715Q1627.4858134382418 -6.1801220719694925 1627.549526036922 -17.425395739006767V-18.922641807989066Q1627.549526036922 -30.582047366446975 1624.953237640708 -37.2400139285172Q1622.356949244494 -43.89798049058743 1619.6491638005898 -46.57390963515154L1621.3375476656124 -51.479779733519074Q1624.4913213002774 -49.88696476651663 1627.8043764316426 -45.45893915824983Q1631.1174315630076 -41.030913549983026 1633.3633006664809 -34.293306239562675Q1635.6091697699544 -27.555698929142327 1635.6091697699544 -18.126234324487843Z"/>
</g></svg>