<svg xmlns="http://www.w3.org/2000/svg" viewBox="0 0 2000 980" width="2000" height="980">
  <defs>
    <linearGradient id="blu" x1="0" y1="0" x2="0" y2="1">
      <stop offset="0" stop-color="#5BC9FF"/>
      <stop offset="1" stop-color="#1287CC"/>
    </linearGradient>
    <filter id="glow" x="-30%" y="-30%" width="160%" height="160%">
      <feGaussianBlur stdDeviation="14"/>
    </filter>
    <filter id="glow2" x="-30%" y="-30%" width="160%" height="160%">
      <feGaussianBlur stdDeviation="9"/>
    </filter>
  </defs>
  <rect width="2000" height="980" fill="#040507"/>
  <!-- bagliore -->
  <path transform="translate(191.0,350.0)" d="M143.2265625 -179.15625 91.546875 0.0H54.017578125L2.583984375 -179.15625H42.697265625L72.720703125 -49.21875L102.8671875 -179.15625Z M157.059984375 0.0V-179.15625H259.681078125V-149.009765625H193.3588125V-106.681640625H249.591234375V-77.51953125H193.3588125V-30.0234375H259.927171875V0.0Z M359.032078125 0.0 332.0848125 -65.4609375H314.11996875V0.0H277.821140625V-179.15625H335.530125Q362.35434375 -179.15625 377.3660625 -165.3134765625Q392.37778125 -151.470703125 392.37778125 -125.015625Q392.37778125 -105.57421875 385.48715625 -93.638671875Q378.59653125 -81.703125 366.414890625 -75.181640625L397.914890625 -1.72265625V0.0ZM314.11996875 -149.009765625V-95.607421875H334.54575Q345.373875 -95.607421875 350.7879375 -102.8056640625Q356.202 -110.00390625 356.202 -122.0625Q356.202 -148.517578125 336.26840625 -149.009765625Z M414.20925 0.0V-179.15625H461.582296875Q492.71315625 -179.15625 511.662375 -159.345703125Q530.61159375 -139.53515625 530.61159375 -103.359375V-75.673828125Q530.61159375 -39.62109375 511.662375 -19.810546875Q492.71315625 0.0 461.21315625 0.0ZM450.508078125 -149.009765625V-30.0234375H461.21315625Q480.531515625 -30.0234375 487.4836640625 -40.60546875Q494.4358125 -51.1875 494.4358125 -75.673828125V-103.60546875Q494.4358125 -127.72265625 487.7297578125 -138.2431640625Q481.023703125 -148.763671875 462.443625 -149.009765625Z M553.550484375 0.0V-179.15625H656.171578125V-149.009765625H589.8493125V-106.681640625H646.081734375V-77.51953125H589.8493125V-30.0234375H656.417671875V0.0Z M711.963984375 -179.15625V0.0H675.788203125V-179.15625Z M820.420453125 -49.7109375 854.135296875 -179.15625H901.385296875V0.0H865.08646875V-48.48046875L868.408734375 -122.677734375L832.725140625 0.0H807.99271875L772.309125 -122.677734375L775.631390625 -48.48046875V0.0H739.3325625V-179.15625H786.5825625Z M963.6991875 -63.0V0.0H927.400359375V-179.15625H988.55465625Q1015.62496875 -179.15625 1031.1903984374999 -162.3603515625Q1046.7558281249999 -145.564453125 1046.7558281249999 -119.84765625Q1046.7558281249999 -93.884765625 1031.3134453124999 -78.50390625Q1015.8710625 -63.123046875 988.923796875 -63.0ZM963.6991875 -149.009765625V-93.146484375H988.55465625Q999.87496875 -93.146484375 1004.9814140625 -100.5908203125Q1010.087859375 -108.03515625 1010.087859375 -119.6015625Q1010.087859375 -131.16796875 1004.9814140625 -140.0888671875Q999.87496875 -149.009765625 988.55465625 -149.009765625Z M1105.501359375 -179.15625V0.0H1069.325578125V-179.15625Z M1123.395328125 0.0 1179.38165625 -179.15625H1212.481265625L1268.836734375 0.0H1230.3230625L1220.72540625 -36.66796875H1171.383609375L1161.785953125 0.0ZM1179.258609375 -66.814453125H1212.85040625L1195.992984375 -130.798828125Z M1408.0549218750002 -179.15625V0.0H1371.8791406250002L1318.9689843750002 -117.509765625V0.0H1282.6701562500002V-179.15625H1318.9689843750002L1371.8791406250002 -61.5234375V-179.15625Z M1422.3805312500003 -149.009765625V-179.15625H1546.5348281250003V-149.009765625H1502.1149062500003V0.0H1465.9391250000003V-149.009765625Z M1602.0811406250004 -179.15625V0.0H1565.9053593750004V-179.15625Z" fill="#2FB1F0" opacity="0.85" filter="url(#glow)"/>
  <path transform="translate(191.0,700.0)" d="M34.19921875 -42.5V0.0H9.7119140625V-120.859375H50.966796875Q69.228515625 -120.859375 79.72900390625 -109.52880859375Q90.2294921875 -98.1982421875 90.2294921875 -80.849609375Q90.2294921875 -63.3349609375 79.81201171875 -52.958984375Q69.39453125 -42.5830078125 51.2158203125 -42.5ZM34.19921875 -100.5224609375V-62.8369140625H50.966796875Q58.603515625 -62.8369140625 62.04833984375 -67.85888671875Q65.4931640625 -72.880859375 65.4931640625 -80.68359375Q65.4931640625 -88.486328125 62.04833984375 -94.50439453125Q58.603515625 -100.5224609375 50.966796875 -100.5224609375Z M288.55972209821437 0.0 270.38101116071437 -44.16015625H258.26187053571437V0.0H233.77456584821434V-120.859375H272.70522991071437Q290.80093303571437 -120.859375 300.92788616071437 -111.52099609375Q311.05483928571437 -102.1826171875 311.05483928571437 -84.3359375Q311.05483928571437 -71.220703125 306.40640178571437 -63.1689453125Q301.75796428571437 -55.1171875 293.54019084821437 -50.7177734375L314.79019084821437 -1.162109375V0.0ZM258.26187053571437 -100.5224609375V-64.4970703125H272.04116741071437Q279.34585491071437 -64.4970703125 282.99819866071437 -69.35302734375Q286.65054241071437 -74.208984375 286.65054241071437 -82.34375Q286.65054241071437 -100.1904296875 273.20327678571437 -100.5224609375Z M455.0979598214287 0.0V-120.859375H524.3264754464287V-100.5224609375H479.5852645089287V-71.9677734375H517.5198348214287V-52.294921875H479.5852645089287V-20.25390625H524.4924910714287V0.0Z M716.929166294643 -31.7919921875Q716.929166294643 -38.017578125 713.899381138393 -42.04345703125Q710.869595982143 -46.0693359375 698.003385044643 -51.298828125Q685.137174107143 -56.5283203125 675.508267857143 -64.580078125Q665.298306919643 -73.1298828125 665.298306919643 -88.7353515625Q665.298306919643 -104.0087890625 676.006314732143 -113.26416015625Q686.714322544643 -122.51953125 703.564908482143 -122.51953125Q720.913541294643 -122.51953125 731.248013950893 -112.060546875Q741.582486607143 -101.6015625 741.582486607143 -85.2490234375H717.178189732143Q717.178189732143 -92.802734375 713.899381138393 -97.7001953125Q710.620572544643 -102.59765625 703.149869419643 -102.59765625Q696.260220982143 -102.59765625 692.981412388393 -98.5302734375Q689.702603794643 -94.462890625 689.702603794643 -88.65234375Q689.702603794643 -82.7587890625 694.641568638393 -78.7744140625Q699.580533482143 -74.7900390625 707.715299107143 -71.220703125Q724.648892857143 -65.1611328125 733.032681919643 -56.0302734375Q741.416470982143 -46.8994140625 741.416470982143 -31.9580078125Q741.416470982143 -16.0205078125 731.372525669643 -7.18017578125Q721.328580357143 1.66015625 704.062955357143 1.66015625Q693.686978794643 1.66015625 684.099576450893 -2.5732421875Q674.512174107143 -6.806640625 668.369595982143 -15.60546875Q662.227017857143 -24.404296875 662.227017857143 -38.18359375H686.714322544643Q686.714322544643 -27.2265625 691.072232700893 -22.744140625Q695.430142857143 -18.26171875 704.062955357143 -18.26171875Q711.118619419643 -18.26171875 714.023892857143 -22.12158203125Q716.929166294643 -25.9814453125 716.929166294643 -31.7919921875Z M884.8785368303573 0.0V-120.859375H954.1070524553573V-100.5224609375H909.3658415178573V-71.9677734375H947.3004118303573V-52.294921875H909.3658415178573V-20.25390625H954.2730680803573V0.0Z M1180.1618917410717 -120.859375V0.0H1155.7575948660717L1120.0642354910717 -79.2724609375V0.0H1095.5769308035717V-120.859375H1120.0642354910717L1155.7575948660717 -41.50390625V-120.859375Z M1323.208918526786 -100.5224609375V-120.859375H1401.236262276786V-106.58203125L1352.261652901786 -20.25390625H1402.066340401786V0.0H1323.706965401786V-14.6923828125L1373.013606026786 -100.5224609375Z M1544.3662968750002 0.0V-120.859375H1613.5948125000002V-100.5224609375H1568.8536015625002V-71.9677734375H1606.7881718750002V-52.294921875H1568.8536015625002V-20.25390625H1613.7608281250002V0.0Z" fill="#2FB1F0" opacity="0.7" filter="url(#glow2)"/>
  <!-- testo nitido -->
  <path transform="translate(191.0,350.0)" d="M143.2265625 -179.15625 91.546875 0.0H54.017578125L2.583984375 -179.15625H42.697265625L72.720703125 -49.21875L102.8671875 -179.15625Z M157.059984375 0.0V-179.15625H259.681078125V-149.009765625H193.3588125V-106.681640625H249.591234375V-77.51953125H193.3588125V-30.0234375H259.927171875V0.0Z M359.032078125 0.0 332.0848125 -65.4609375H314.11996875V0.0H277.821140625V-179.15625H335.530125Q362.35434375 -179.15625 377.3660625 -165.3134765625Q392.37778125 -151.470703125 392.37778125 -125.015625Q392.37778125 -105.57421875 385.48715625 -93.638671875Q378.59653125 -81.703125 366.414890625 -75.181640625L397.914890625 -1.72265625V0.0ZM314.11996875 -149.009765625V-95.607421875H334.54575Q345.373875 -95.607421875 350.7879375 -102.8056640625Q356.202 -110.00390625 356.202 -122.0625Q356.202 -148.517578125 336.26840625 -149.009765625Z M414.20925 0.0V-179.15625H461.582296875Q492.71315625 -179.15625 511.662375 -159.345703125Q530.61159375 -139.53515625 530.61159375 -103.359375V-75.673828125Q530.61159375 -39.62109375 511.662375 -19.810546875Q492.71315625 0.0 461.21315625 0.0ZM450.508078125 -149.009765625V-30.0234375H461.21315625Q480.531515625 -30.0234375 487.4836640625 -40.60546875Q494.4358125 -51.1875 494.4358125 -75.673828125V-103.60546875Q494.4358125 -127.72265625 487.7297578125 -138.2431640625Q481.023703125 -148.763671875 462.443625 -149.009765625Z M553.550484375 0.0V-179.15625H656.171578125V-149.009765625H589.8493125V-106.681640625H646.081734375V-77.51953125H589.8493125V-30.0234375H656.417671875V0.0Z M711.963984375 -179.15625V0.0H675.788203125V-179.15625Z M820.420453125 -49.7109375 854.135296875 -179.15625H901.385296875V0.0H865.08646875V-48.48046875L868.408734375 -122.677734375L832.725140625 0.0H807.99271875L772.309125 -122.677734375L775.631390625 -48.48046875V0.0H739.3325625V-179.15625H786.5825625Z M963.6991875 -63.0V0.0H927.400359375V-179.15625H988.55465625Q1015.62496875 -179.15625 1031.1903984374999 -162.3603515625Q1046.7558281249999 -145.564453125 1046.7558281249999 -119.84765625Q1046.7558281249999 -93.884765625 1031.3134453124999 -78.50390625Q1015.8710625 -63.123046875 988.923796875 -63.0ZM963.6991875 -149.009765625V-93.146484375H988.55465625Q999.87496875 -93.146484375 1004.9814140625 -100.5908203125Q1010.087859375 -108.03515625 1010.087859375 -119.6015625Q1010.087859375 -131.16796875 1004.9814140625 -140.0888671875Q999.87496875 -149.009765625 988.55465625 -149.009765625Z M1105.501359375 -179.15625V0.0H1069.325578125V-179.15625Z M1123.395328125 0.0 1179.38165625 -179.15625H1212.481265625L1268.836734375 0.0H1230.3230625L1220.72540625 -36.66796875H1171.383609375L1161.785953125 0.0ZM1179.258609375 -66.814453125H1212.85040625L1195.992984375 -130.798828125Z M1408.0549218750002 -179.15625V0.0H1371.8791406250002L1318.9689843750002 -117.509765625V0.0H1282.6701562500002V-179.15625H1318.9689843750002L1371.8791406250002 -61.5234375V-179.15625Z M1422.3805312500003 -149.009765625V-179.15625H1546.5348281250003V-149.009765625H1502.1149062500003V0.0H1465.9391250000003V-149.009765625Z M1602.0811406250004 -179.15625V0.0H1565.9053593750004V-179.15625Z" fill="url(#blu)"/>
  <path transform="translate(191.0,700.0)" d="M34.19921875 -42.5V0.0H9.7119140625V-120.859375H50.966796875Q69.228515625 -120.859375 79.72900390625 -109.52880859375Q90.2294921875 -98.1982421875 90.2294921875 -80.849609375Q90.2294921875 -63.3349609375 79.81201171875 -52.958984375Q69.39453125 -42.5830078125 51.2158203125 -42.5ZM34.19921875 -100.5224609375V-62.8369140625H50.966796875Q58.603515625 -62.8369140625 62.04833984375 -67.85888671875Q65.4931640625 -72.880859375 65.4931640625 -80.68359375Q65.4931640625 -88.486328125 62.04833984375 -94.50439453125Q58.603515625 -100.5224609375 50.966796875 -100.5224609375Z M288.55972209821437 0.0 270.38101116071437 -44.16015625H258.26187053571437V0.0H233.77456584821434V-120.859375H272.70522991071437Q290.80093303571437 -120.859375 300.92788616071437 -111.52099609375Q311.05483928571437 -102.1826171875 311.05483928571437 -84.3359375Q311.05483928571437 -71.220703125 306.40640178571437 -63.1689453125Q301.75796428571437 -55.1171875 293.54019084821437 -50.7177734375L314.79019084821437 -1.162109375V0.0ZM258.26187053571437 -100.5224609375V-64.4970703125H272.04116741071437Q279.34585491071437 -64.4970703125 282.99819866071437 -69.35302734375Q286.65054241071437 -74.208984375 286.65054241071437 -82.34375Q286.65054241071437 -100.1904296875 273.20327678571437 -100.5224609375Z M455.0979598214287 0.0V-120.859375H524.3264754464287V-100.5224609375H479.5852645089287V-71.9677734375H517.5198348214287V-52.294921875H479.5852645089287V-20.25390625H524.4924910714287V0.0Z M716.929166294643 -31.7919921875Q716.929166294643 -38.017578125 713.899381138393 -42.04345703125Q710.869595982143 -46.0693359375 698.003385044643 -51.298828125Q685.137174107143 -56.5283203125 675.508267857143 -64.580078125Q665.298306919643 -73.1298828125 665.298306919643 -88.7353515625Q665.298306919643 -104.0087890625 676.006314732143 -113.26416015625Q686.714322544643 -122.51953125 703.564908482143 -122.51953125Q720.913541294643 -122.51953125 731.248013950893 -112.060546875Q741.582486607143 -101.6015625 741.582486607143 -85.2490234375H717.178189732143Q717.178189732143 -92.802734375 713.899381138393 -97.7001953125Q710.620572544643 -102.59765625 703.149869419643 -102.59765625Q696.260220982143 -102.59765625 692.981412388393 -98.5302734375Q689.702603794643 -94.462890625 689.702603794643 -88.65234375Q689.702603794643 -82.7587890625 694.641568638393 -78.7744140625Q699.580533482143 -74.7900390625 707.715299107143 -71.220703125Q724.648892857143 -65.1611328125 733.032681919643 -56.0302734375Q741.416470982143 -46.8994140625 741.416470982143 -31.9580078125Q741.416470982143 -16.0205078125 731.372525669643 -7.18017578125Q721.328580357143 1.66015625 704.062955357143 1.66015625Q693.686978794643 1.66015625 684.099576450893 -2.5732421875Q674.512174107143 -6.806640625 668.369595982143 -15.60546875Q662.227017857143 -24.404296875 662.227017857143 -38.18359375H686.714322544643Q686.714322544643 -27.2265625 691.072232700893 -22.744140625Q695.430142857143 -18.26171875 704.062955357143 -18.26171875Q711.118619419643 -18.26171875 714.023892857143 -22.12158203125Q716.929166294643 -25.9814453125 716.929166294643 -31.7919921875Z M884.8785368303573 0.0V-120.859375H954.1070524553573V-100.5224609375H909.3658415178573V-71.9677734375H947.3004118303573V-52.294921875H909.3658415178573V-20.25390625H954.2730680803573V0.0Z M1180.1618917410717 -120.859375V0.0H1155.7575948660717L1120.0642354910717 -79.2724609375V0.0H1095.5769308035717V-120.859375H1120.0642354910717L1155.7575948660717 -41.50390625V-120.859375Z M1323.208918526786 -100.5224609375V-120.859375H1401.236262276786V-106.58203125L1352.261652901786 -20.25390625H1402.066340401786V0.0H1323.706965401786V-14.6923828125L1373.013606026786 -100.5224609375Z M1544.3662968750002 0.0V-120.859375H1613.5948125000002V-100.5224609375H1568.8536015625002V-71.9677734375H1606.7881718750002V-52.294921875H1568.8536015625002V-20.25390625H1613.7608281250002V0.0Z" fill="#59C9F7"/>
  <!-- righe -->
  <rect x="191.0" y="402.0" width="1618.1" height="7" fill="#1B9CD8"/>
  <rect x="191.0" y="754.0" width="1618.1" height="4" fill="#1B9CD8" opacity="0.55"/>
</svg>